 <svg  version="1.0" xmlns="http://www.w3.org/2000/svg"  width="300.000000pt" height="300.000000pt" viewBox="0 0 300.000000 300.000000"  preserveAspectRatio="xMidYMid meet">  <g transform="translate(0.000000,300.000000) scale(0.100000,-0.100000)" fill="#fefbfb" stroke="none"> <path d="M1345 2990 c-204 -17 -466 -107 -639 -218 -182 -117 -362 -297 -478 -478 -116 -181 -210 -466 -220 -671 -5 -99 10 -77 22 33 19 164 101 451 122 422 7 -10 8 -8 4 5 -6 18 48 142 67 154 6 4 7 1 2 -7 -5 -8 -4 -11 3 -6 6 4 9 13 6 21 -4 9 1 18 11 21 9 4 14 13 11 20 -3 8 -1 14 4 14 6 0 10 5 10 11 0 16 36 59 44 52 3 -3 6 0 6 8 0 22 41 70 151 179 105 104 136 130 157 130 7 0 10 5 7 10 -3 6 -2 10 4 10 5 0 22 11 37 25 14 13 29 24 33 23 18 -2 32 3 27 10 -2 4 16 18 42 31 26 12 73 36 105 52 32 17 65 28 73 25 8 -3 13 -2 10 3 -13 21 283 96 411 104 29 1 58 8 65 15 7 7 8 11 3 11 -6 -1 -50 -5 -100 -9z"/> <path d="M1572 2983 c6 -7 32 -13 60 -13 80 0 358 -62 358 -79 0 -3 11 -7 24 -7 32 -2 187 -79 178 -89 -4 -5 1 -5 11 -2 11 4 25 -1 37 -13 11 -11 20 -17 20 -12 0 4 4 2 8 -3 4 -6 20 -17 35 -25 16 -8 39 -23 51 -35 12 -11 35 -28 50 -39 55 -36 196 -171 196 -188 0 -5 6 -8 13 -8 11 -1 48 -47 91 -115 10 -16 22 -32 26 -35 5 -3 10 -11 12 -19 2 -8 12 -24 23 -36 24 -28 79 -135 97 -190 7 -22 17 -43 22 -46 5 -4 6 -14 3 -24 -4 -9 -3 -14 1 -11 16 9 81 -255 84 -340 1 -19 7 -39 14 -45 27 -22 -9 196 -57 346 -161 505 -579 891 -1092 1006 -119 27 -280 40 -265 22z"/> <path d="M1396 2720 c-22 -11 -50 -20 -62 -20 -31 0 -55 -10 -48 -21 3 -5 -1 -6 -9 -3 -8 3 -44 -9 -79 -25 -36 -17 -72 -31 -81 -31 -9 0 -29 -16 -44 -35 -15 -20 -61 -63 -101 -96 -64 -53 -72 -62 -60 -77 7 -9 9 -13 3 -10 -15 9 -75 -84 -82 -128 -4 -21 -6 -68 -5 -104 5 -169 9 -238 16 -267 6 -25 4 -33 -6 -33 -8 0 -6 -5 5 -11 16 -9 18 -19 12 -60 -8 -57 2 -119 16 -98 6 10 9 1 11 -26 2 -49 4 -77 8 -90 1 -5 2 -13 1 -17 0 -5 4 -8 10 -8 5 0 7 -4 4 -10 -3 -5 -3 -16 2 -22 4 -7 8 -21 9 -30 3 -31 5 -33 15 -13 7 16 8 13 4 -14 -5 -32 26 -107 95 -231 11 -19 20 -53 20 -76 0 -46 53 -163 118 -261 23 -34 49 -77 59 -97 13 -28 23 -36 43 -36 15 0 44 -14 66 -30 91 -73 117 -113 205 -312 l40 -90 -21 -55 c-11 -29 -20 -61 -20 -71 1 -9 11 12 24 48 62 170 70 184 139 253 37 37 67 74 67 83 0 8 5 12 10 9 6 -3 10 3 10 14 0 11 23 43 50 70 28 28 50 58 50 68 0 13 -6 9 -19 -13 -10 -17 -33 -41 -49 -53 -17 -12 -41 -42 -54 -68 -13 -25 -46 -69 -75 -96 -28 -28 -59 -69 -68 -91 -10 -23 -22 -52 -27 -66 -10 -25 -11 -25 -24 13 -30 86 -135 278 -171 315 -54 55 -107 92 -131 92 -15 0 -35 24 -79 98 -97 161 -151 282 -125 282 4 0 41 -32 82 -71 67 -63 160 -119 184 -111 4 1 14 -5 20 -14 13 -17 51 -21 171 -14 98 5 195 65 278 172 l45 57 6 -62 c3 -34 7 -107 8 -162 1 -96 0 -103 -37 -185 -21 -47 -47 -97 -57 -112 -10 -16 -26 -40 -36 -55 -10 -16 -24 -39 -31 -53 l-12 -25 21 25 c11 14 31 46 45 71 13 25 31 51 39 58 9 8 16 17 16 22 0 5 23 57 51 117 70 146 78 176 62 232 l-13 45 4 -45 c5 -43 -20 -170 -33 -170 -3 0 -5 36 -3 81 2 45 -1 119 -8 165 -9 67 -8 89 2 108 104 187 130 271 135 435 3 87 8 117 19 126 9 6 18 29 21 52 5 40 5 41 -22 35 -25 -4 -27 -3 -20 14 5 10 9 46 11 79 1 34 8 81 15 105 14 50 20 262 7 254 -4 -3 -8 1 -8 9 0 15 -44 32 -59 23 -8 -6 -41 56 -41 78 0 7 -11 18 -25 24 -17 8 -25 20 -25 36 0 30 -9 56 -21 56 -4 0 -6 -7 -2 -16 3 -8 -12 1 -33 20 -40 37 -54 44 -54 25 0 -5 5 -7 10 -4 6 3 10 1 10 -4 0 -6 -4 -11 -8 -11 -5 0 -9 -7 -9 -15 0 -8 4 -15 9 -15 4 0 8 -5 8 -11 0 -5 -4 -7 -10 -4 -5 3 -10 -3 -10 -14 0 -32 18 -25 25 11 l7 31 20 -24 c11 -13 25 -38 33 -54 7 -17 25 -37 39 -45 15 -8 22 -16 16 -20 -19 -12 12 -65 40 -69 14 -1 29 -8 33 -15 5 -6 7 -2 4 12 -7 32 8 27 23 -8 10 -25 10 -33 -1 -47 -9 -10 -9 -14 -2 -10 8 5 12 -1 12 -20 1 -15 1 -37 2 -48 2 -33 -11 -137 -20 -154 -5 -9 -6 -22 -4 -28 3 -7 -2 -13 -11 -13 -9 0 -16 6 -16 14 0 7 -7 19 -15 26 -9 7 -12 16 -7 19 5 3 -5 17 -22 31 l-31 25 31 -55 c30 -53 41 -91 49 -174 3 -21 11 -52 20 -69 17 -34 18 -40 7 -33 -5 3 -9 -14 -10 -37 -1 -23 -5 -73 -9 -112 -4 -38 -6 -73 -5 -77 1 -5 -3 -8 -9 -8 -5 0 -7 -5 -4 -11 4 -5 -1 -20 -12 -31 -10 -12 -12 -18 -5 -14 6 4 12 3 12 -2 0 -6 -7 -12 -15 -16 -8 -3 -15 -13 -15 -23 1 -17 2 -16 15 1 19 25 20 7 1 -19 -7 -11 -17 -31 -21 -45 -24 -79 -124 -256 -139 -245 -3 3 -4 2 -1 -1 2 -4 -8 -22 -22 -40 -18 -24 -29 -31 -37 -25 -8 7 -12 4 -13 -11 -1 -11 -3 -21 -5 -22 -64 -45 -105 -67 -120 -63 -10 3 -16 1 -13 -3 3 -5 -15 -12 -39 -15 -40 -6 -66 -4 -131 11 -16 4 -15 2 5 -11 l25 -16 -25 7 c-36 10 -52 28 -37 44 10 10 7 10 -11 1 -26 -14 -46 -5 -37 16 4 13 3 14 -10 3 -8 -7 -12 -17 -8 -24 4 -7 1 -6 -9 1 -8 7 -19 9 -24 5 -4 -4 -2 1 5 11 12 14 11 17 -3 17 -9 0 -16 -5 -16 -10 0 -6 -6 -5 -14 2 -12 11 -12 15 0 29 8 9 11 19 8 22 -4 4 -1 15 7 24 13 16 12 17 -4 4 -10 -8 -16 -20 -13 -28 3 -8 -1 -16 -9 -19 -18 -7 -47 14 -39 27 3 5 -2 6 -11 3 -11 -5 -18 0 -22 15 -3 11 -11 21 -19 21 -22 0 -74 53 -79 80 -6 33 -26 80 -34 80 -6 0 -16 21 -46 100 -8 19 -14 50 -14 69 0 19 -5 37 -12 42 -6 4 -9 14 -6 22 3 8 0 23 -8 33 -7 11 -13 21 -13 24 -1 11 -14 46 -23 62 -17 33 -21 94 -9 158 7 36 14 75 15 87 2 12 7 36 11 55 4 18 8 36 8 40 1 3 4 10 9 14 10 11 9 82 -3 89 -5 3 -9 -7 -9 -22 1 -32 -3 -53 -14 -70 -5 -8 -3 -13 5 -13 10 0 9 -3 -2 -10 -8 -5 -11 -12 -8 -16 4 -3 0 -13 -8 -22 -12 -12 -13 -17 -3 -23 10 -6 9 -10 -4 -15 -10 -3 -20 -4 -23 -1 -3 3 -7 43 -10 88 -2 46 -7 93 -10 104 -4 14 -3 16 4 7 7 -11 11 -9 15 8 3 12 3 19 0 16 -11 -11 -29 20 -27 49 2 44 3 47 14 40 6 -3 10 -1 10 5 0 7 7 9 16 6 14 -6 15 -4 4 9 -10 13 -15 13 -21 3 -14 -22 -19 -2 -8 30 7 20 20 34 35 38 13 3 21 10 18 16 -3 5 -12 4 -20 -3 -12 -10 -14 -8 -11 9 2 12 7 25 12 29 4 5 5 2 1 -4 -11 -20 2 -15 25 8 11 11 23 18 27 15 3 -4 -3 -13 -14 -21 -18 -14 -17 -15 7 -4 18 7 25 17 22 28 -2 10 3 24 13 32 15 13 16 12 9 -10 -7 -22 -5 -23 18 -17 14 3 27 2 29 -3 2 -5 12 -3 22 5 16 11 17 16 7 27 -10 10 -12 9 -9 -2 2 -7 -3 -16 -11 -19 -8 -2 -11 0 -7 6 3 6 0 12 -6 15 -17 6 26 22 82 31 42 7 44 6 25 -9 -19 -16 -19 -16 5 -9 14 4 32 9 40 12 9 3 7 -2 -5 -12 -20 -18 -20 -18 0 -11 11 4 29 10 40 12 20 5 20 5 0 -11 -19 -16 -18 -16 19 -1 48 19 52 19 35 -2 -13 -15 -12 -15 8 -5 12 7 26 11 30 10 4 -1 18 1 30 5 26 9 39 37 17 37 -8 0 -13 -4 -10 -9 4 -5 -9 -8 -26 -7 -18 1 -42 -1 -54 -5 -11 -4 -45 -1 -75 7 -30 8 -64 12 -76 9 -27 -6 -53 3 -49 18 1 7 1 9 -1 5 -7 -13 -20 -9 -27 8 -3 9 4 24 19 38 14 13 25 26 25 30 0 14 25 31 50 34 14 2 48 15 75 30 28 14 58 29 68 34 25 12 124 31 165 31 22 0 29 3 20 10 -14 9 24 3 59 -10 16 -6 16 -5 4 10 -10 13 -10 17 -1 17 6 0 14 -9 17 -19 3 -12 17 -21 39 -26 38 -7 84 -47 84 -72 0 -13 3 -14 12 -5 9 9 7 17 -10 35 -29 31 -28 46 1 19 18 -17 26 -19 35 -10 9 9 16 7 32 -7 11 -10 20 -25 20 -33 0 -12 -5 -10 -23 6 -30 29 -38 28 -24 -2 7 -13 15 -22 19 -20 5 3 4 -6 -2 -20 -7 -19 -5 -29 6 -41 9 -8 12 -15 7 -15 -4 0 4 -11 19 -24 14 -14 28 -31 31 -38 4 -10 7 -10 18 1 8 8 9 11 2 7 -15 -8 -65 74 -60 100 5 22 23 69 39 102 9 17 9 25 0 34 -8 8 -13 4 -18 -16 -7 -29 -8 -30 -32 -16 -9 5 -51 19 -92 31 -41 12 -101 30 -132 40 -69 23 -64 23 -112 -1z m-358 -251 c11 -18 11 -23 -5 -35 -21 -16 -43 -18 -43 -4 0 5 -7 7 -15 4 -8 -4 -15 -12 -15 -20 0 -7 -9 -18 -21 -24 -19 -11 -20 -10 -10 9 6 11 10 26 9 33 -2 8 5 12 18 10 14 -2 27 6 38 23 20 30 27 31 44 4z m-23 -69 c-3 -5 -11 -10 -16 -10 -6 0 -7 5 -4 10 3 6 11 10 16 10 6 0 7 -4 4 -10z m926 -17 c13 -16 12 -17 -3 -4 -10 7 -18 15 -18 17 0 8 8 3 21 -13z m59 -423 c0 -5 -4 -10 -10 -10 -5 0 -10 5 -10 10 0 6 5 10 10 10 6 0 10 -4 10 -10z m-1100 -78 c0 -5 -6 -17 -14 -28 -15 -19 -15 -19 -11 1 2 11 4 23 4 28 1 10 21 9 21 -1z"/> <path d="M1009 2443 c-13 -17 -13 -17 6 -3 11 8 22 16 24 17 2 2 0 3 -6 3 -6 0 -17 -8 -24 -17z"/> <path d="M1510 2666 l25 -16 -35 6 c-33 5 -32 4 12 -14 26 -11 62 -29 81 -41 19 -11 37 -18 40 -15 9 9 -4 35 -14 28 -5 -3 -9 0 -9 5 0 6 -9 11 -20 11 -11 0 -29 9 -39 19 -10 10 -30 22 -43 25 -23 7 -23 7 2 -8z"/> <path d="M1390 2645 c0 -12 6 -16 20 -12 10 3 20 1 22 -5 2 -5 13 -6 27 0 l25 9 -30 6 c-16 3 -37 9 -46 12 -13 5 -18 2 -18 -10z"/> <path d="M1286 2643 c-3 -3 1 -12 9 -19 16 -16 46 -8 39 10 -5 12 -38 19 -48 9z"/> <path d="M1360 2639 c0 -5 5 -7 10 -4 6 3 10 8 10 11 0 2 -4 4 -10 4 -5 0 -10 -5 -10 -11z"/> <path d="M1810 2620 c0 -5 5 -10 10 -10 6 0 10 5 10 10 0 6 -4 10 -10 10 -5 0 -10 -4 -10 -10z"/> <path d="M1231 2609 c-24 -5 -47 -11 -50 -15 -3 -4 7 -4 22 0 20 5 27 3 22 -5 -10 -15 35 -2 55 17 16 15 14 16 -49 3z"/> <path d="M1360 2600 c24 -6 24 -7 3 -14 -11 -4 -37 -6 -57 -4 -36 2 -55 -6 -43 -19 12 -11 70 -7 120 10 26 9 45 13 43 8 -3 -4 21 -8 53 -7 36 1 57 5 54 11 -3 6 0 4 8 -2 15 -15 39 -17 39 -4 0 14 -96 30 -175 29 -43 -1 -60 -4 -45 -8z"/> <path d="M1680 2575 c-8 -9 -8 -15 -2 -15 12 0 26 19 19 26 -2 2 -10 -2 -17 -11z"/> <path d="M1172 2566 c-14 -7 -20 -16 -16 -26 3 -8 7 -21 8 -29 4 -20 56 -41 56 -22 0 5 -9 11 -20 14 -20 5 -37 33 -27 44 3 3 21 -4 39 -15 18 -11 48 -23 67 -27 25 -5 30 -10 20 -17 -17 -11 96 -5 124 7 21 9 20 -14 -2 -31 -11 -8 -11 -13 -2 -18 7 -5 18 -1 24 7 7 8 26 22 42 31 17 8 24 15 16 16 -11 0 -10 4 5 16 18 14 18 15 -6 8 -14 -3 -29 -10 -35 -15 -12 -11 -28 -12 -21 -1 3 5 -27 9 -67 8 -85 0 -131 10 -121 26 5 8 2 9 -9 5 -19 -7 -23 9 -4 17 6 3 -1 2 -17 -1 -20 -4 -27 -3 -22 6 9 13 -1 13 -32 -3z m303 -76 c-3 -5 -14 -10 -23 -10 -15 0 -15 2 -2 10 20 13 33 13 25 0z"/> <path d="M1320 2544 c-30 -11 -32 -13 -10 -13 14 0 39 6 55 14 40 18 4 18 -45 -1z"/> <path d="M1430 2550 c-19 -4 -46 -13 -60 -19 l-25 -12 25 7 c14 4 48 8 75 9 97 4 102 4 83 16 -12 7 -24 6 -37 -1 -25 -13 -34 -13 -26 0 3 6 5 9 3 9 -2 -1 -19 -5 -38 -9z"/> <path d="M1532 2518 c3 -7 15 -15 27 -16 14 -2 21 0 17 7 -4 5 -14 7 -23 4 -11 -4 -14 -3 -9 5 4 7 2 12 -4 12 -7 0 -10 -6 -8 -12z"/> <path d="M1630 2517 c0 -1 16 -18 37 -37 23 -22 32 -27 25 -14 -9 18 -62 61 -62 51z"/> <path d="M1800 2517 c0 -2 9 -14 20 -27 22 -25 26 -40 10 -40 -5 0 -10 -7 -10 -15 0 -9 6 -12 15 -9 8 4 15 13 15 21 0 20 -29 73 -40 73 -6 0 -10 -2 -10 -3z"/> <path d="M1092 2501 c-10 -6 -6 -11 15 -17 41 -11 63 -12 63 -3 0 5 -13 9 -29 9 -16 0 -31 4 -33 10 -2 5 -9 6 -16 1z"/> <path d="M1680 2506 c0 -2 8 -10 18 -17 15 -13 16 -12 3 4 -13 16 -21 21 -21 13z"/> <path d="M1243 2465 c0 -8 7 -15 15 -15 7 0 12 5 10 12 -6 18 -25 21 -25 3z"/> <path d="M1485 2465 c-16 -9 -22 -13 -12 -10 55 15 67 16 67 6 0 -6 14 -11 32 -11 41 0 26 16 -22 24 -22 4 -46 0 -65 -9z"/> <path d="M1616 2451 c-8 -13 -85 -19 -89 -6 -2 6 -23 2 -53 -10 -41 -17 -53 -19 -73 -9 -19 10 -27 10 -38 -2 -8 -8 -20 -14 -28 -14 -7 0 -25 -15 -40 -32 -31 -38 -55 -54 -55 -38 0 5 7 10 15 10 8 0 15 4 15 9 0 8 -67 -4 -105 -20 -14 -5 -9 -6 15 -3 32 4 33 4 11 -6 -29 -12 -82 -10 -94 5 -5 6 -7 4 -4 -5 2 -8 18 -16 35 -18 18 -2 32 -7 32 -12 0 -5 -16 -25 -35 -45 -20 -19 -30 -35 -24 -35 6 0 27 17 45 37 35 38 88 59 165 66 40 4 132 54 123 68 -3 5 2 9 10 9 20 0 20 -10 0 -38 -17 -25 -46 -42 -89 -53 l-30 -7 30 -1 c21 -1 44 10 76 37 25 20 44 42 42 48 -5 15 93 47 122 40 16 -4 25 -2 25 5 0 8 4 8 15 -1 8 -7 15 -9 15 -6 0 14 47 -25 127 -106 67 -67 85 -80 95 -70 10 10 10 14 -1 21 -7 5 -11 13 -7 19 3 6 1 14 -5 18 -8 5 -10 2 -5 -7 4 -8 0 -5 -8 5 -18 22 -21 41 -7 31 5 -3 12 -2 14 2 3 5 -8 9 -23 9 -27 2 -28 0 -17 -25 6 -14 16 -33 21 -41 6 -9 1 -5 -12 10 -12 14 -34 37 -49 51 -26 27 -27 69 -2 53 8 -5 9 -3 4 5 -5 9 -10 10 -18 2 -19 -19 -27 -12 -23 19 2 16 -1 27 -6 24 -5 -3 -7 -11 -6 -18 2 -6 -1 -11 -7 -11 -5 0 -9 4 -7 8 1 5 -3 7 -10 4 -7 -2 -27 4 -45 15 -17 10 -34 15 -37 9z m-206 -48 c-1 -27 -69 -73 -108 -73 -13 0 -12 5 8 20 14 11 21 20 16 20 -5 0 -3 7 4 15 7 8 18 15 24 15 6 0 2 -7 -8 -15 -23 -17 -14 -20 15 -4 11 5 17 14 14 20 -4 5 3 9 14 9 12 0 21 -3 21 -7z"/> <path d="M1620 2410 c0 -5 7 -10 16 -10 8 0 13 -4 10 -8 -2 -4 7 -8 22 -9 25 -2 25 -1 6 7 -12 5 -25 13 -29 19 -8 14 -25 14 -25 1z"/> <path d="M1105 2400 c-26 -7 -27 -8 -6 -9 18 -1 22 -5 16 -18 -5 -15 -4 -16 6 -5 7 6 23 12 35 12 13 0 26 4 29 10 4 6 -6 7 -26 3 -23 -4 -30 -3 -25 5 4 7 6 11 4 11 -2 -1 -16 -5 -33 -9z"/> <path d="M1960 2400 c0 -5 5 -10 11 -10 5 0 7 5 4 10 -3 6 -8 10 -11 10 -2 0 -4 -4 -4 -10z"/> <path d="M1850 2388 c0 -4 7 -8 15 -8 8 0 15 -5 15 -11 0 -5 -6 -7 -12 -3 -10 6 -10 5 -1 -8 7 -8 9 -18 5 -23 -4 -4 2 -2 14 5 17 11 19 17 10 36 -10 21 -46 30 -46 12z"/> <path d="M1240 2380 c-8 -5 -10 -10 -5 -10 6 0 17 5 25 10 8 5 11 10 5 10 -5 0 -17 -5 -25 -10z"/> <path d="M1810 2370 c-9 -6 -10 -10 -3 -10 6 0 15 5 18 10 8 12 4 12 -15 0z"/> <path d="M1028 2353 c6 -2 18 -2 25 0 6 3 1 5 -13 5 -14 0 -19 -2 -12 -5z"/> <path d="M977 2330 c5 -21 33 -28 33 -9 0 5 -4 7 -10 4 -5 -3 -10 1 -10 9 0 9 -4 16 -9 16 -5 0 -7 -9 -4 -20z"/> <path d="M1030 2330 c-13 -9 -13 -12 3 -24 25 -20 21 -34 -20 -73 -23 -22 -29 -31 -15 -24 13 7 22 8 22 2 0 -5 -10 -13 -22 -16 -43 -13 -78 -30 -78 -39 0 -4 -6 -6 -13 -3 -8 3 -13 -5 -14 -22 -1 -14 1 -20 4 -13 8 21 21 13 17 -10 -4 -21 -4 -21 4 -3 5 11 7 25 5 32 -5 13 46 43 74 43 24 1 92 61 76 67 -7 3 -13 16 -13 30 0 18 4 24 15 19 8 -3 22 -9 30 -12 8 -3 15 -1 15 5 0 12 -46 26 -75 22 -16 -3 -17 -1 -6 13 15 18 13 20 -9 6z"/> <path d="M1901 2327 c9 -7 19 -21 22 -32 3 -12 5 -8 4 11 -1 23 -6 30 -21 31 -19 2 -19 1 -5 -10z"/> <path d="M933 2296 c1 -6 -6 -10 -17 -9 -13 1 -15 -2 -7 -10 8 -8 17 -6 32 9 15 16 17 21 5 21 -8 0 -14 -5 -13 -11z"/> <path d="M1944 2296 c1 -8 5 -18 8 -22 4 -3 5 1 4 10 -1 8 -5 18 -8 22 -4 3 -5 -1 -4 -10z"/> <path d="M992 2256 c7 -7 19 -11 27 -8 11 4 10 7 -5 13 -29 12 -36 10 -22 -5z"/> <path d="M1891 2244 c0 -11 3 -14 6 -6 3 7 2 16 -1 19 -3 4 -6 -2 -5 -13z"/> <path d="M1935 2240 c2 -29 10 -33 13 -5 1 14 -2 25 -6 25 -5 0 -8 -9 -7 -20z"/> <path d="M925 2231 c-3 -5 -2 -12 3 -15 5 -3 9 1 9 9 0 17 -3 19 -12 6z"/> <path d="M1985 2230 c3 -5 8 -10 11 -10 2 0 4 5 4 10 0 6 -5 10 -11 10 -5 0 -7 -4 -4 -10z"/> <path d="M1870 2221 c0 -5 5 -13 10 -16 6 -3 10 -12 10 -18 0 -7 -4 -6 -10 3 -5 8 -10 10 -10 4 0 -12 18 -35 44 -54 18 -14 19 -13 12 5 -8 19 -14 42 -15 57 -1 12 -41 30 -41 19z"/> <path d="M870 2200 c-9 -6 -10 -10 -3 -10 6 0 15 5 18 10 8 12 4 12 -15 0z"/> <path d="M1970 2206 c0 -2 7 -6 15 -10 8 -3 15 -1 15 4 0 6 -7 10 -15 10 -8 0 -15 -2 -15 -4z"/> <path d="M865 2169 c-11 -16 -1 -19 13 -3 7 8 8 14 3 14 -5 0 -13 -5 -16 -11z"/> <path d="M965 2130 c-10 -11 -16 -22 -13 -25 3 -3 13 6 22 20 20 30 16 32 -9 5z"/> <path d="M883 2086 c1 -11 9 -21 17 -23 10 -3 11 -2 4 4 -6 4 -14 15 -17 23 -5 11 -6 9 -4 -4z"/> <path d="M1800 2050 c-7 -4 -19 -6 -26 -3 -6 2 -15 0 -19 -6 -3 -6 -28 -11 -56 -11 -29 0 -49 -4 -49 -11 0 -8 -4 -8 -14 0 -10 8 -16 8 -25 -3 -9 -10 -9 -16 -1 -21 8 -5 8 -11 0 -19 -10 -13 -9 -13 70 -7 11 1 11 4 2 13 -7 7 -12 17 -12 23 0 5 4 4 9 -4 7 -10 13 -11 32 -1 23 11 23 11 4 -5 -19 -16 -19 -16 10 -9 17 4 32 10 35 13 3 3 30 6 60 6 46 0 55 -3 54 -17 -1 -11 5 -18 15 -18 9 0 22 -5 29 -12 9 -9 12 -9 12 3 0 18 -56 69 -76 69 -8 0 -14 4 -14 9 0 13 -25 20 -40 11z m2 -32 c-9 -9 -15 -9 -24 0 -9 9 -7 12 12 12 19 0 21 -3 12 -12z m-158 -30 c-3 -5 -12 -4 -20 3 -7 6 -11 15 -8 21 3 5 12 4 20 -3 7 -6 11 -15 8 -21z"/> <path d="M880 2039 c0 -5 5 -7 10 -4 6 3 10 8 10 11 0 2 -4 4 -10 4 -5 0 -10 -5 -10 -11z"/> <path d="M1049 2033 c-13 -16 -12 -17 4 -4 9 7 17 15 17 17 0 8 -8 3 -21 -13z"/> <path d="M1036 1977 c-25 -25 -46 -48 -46 -51 0 -14 21 -4 48 24 17 17 34 30 39 30 5 0 18 7 29 16 10 8 13 12 5 8 -7 -3 -17 -1 -21 6 -5 8 -21 -2 -54 -33z"/> <path d="M1542 1978 c6 -21 15 -35 20 -32 13 8 10 20 -12 45 l-19 24 11 -37z"/> <path d="M991 1984 c0 -11 3 -14 6 -6 3 7 2 16 -1 19 -3 4 -6 -2 -5 -13z"/> <path d="M1147 1983 c-58 -20 -49 -34 15 -24 25 4 53 4 62 -1 21 -12 107 -27 101 -18 -3 4 2 10 9 13 8 3 17 1 20 -6 2 -7 5 -4 5 6 1 15 -4 17 -21 11 -21 -6 -22 -6 -8 12 14 18 14 18 -3 5 -14 -11 -20 -12 -26 -3 -12 20 -101 23 -154 5z"/> <path d="M1576 1987 c3 -10 9 -15 12 -12 3 3 0 11 -7 18 -10 9 -11 8 -5 -6z"/> <path d="M1670 1933 c-54 -20 -65 -24 -67 -21 -4 8 -53 -48 -53 -61 0 -14 1 -14 10 -1 5 8 10 11 10 5 0 -7 3 -7 8 0 24 32 68 59 114 70 38 10 45 13 23 13 -16 0 -37 -2 -45 -5z"/> <path d="M1809 1914 c42 -18 36 -28 -8 -13 -49 17 -136 5 -182 -26 -63 -41 -49 -82 38 -115 32 -12 54 -16 58 -10 3 6 1 10 -5 10 -18 0 -110 44 -110 52 0 5 23 8 50 8 28 0 50 4 50 8 0 5 21 9 48 9 26 1 54 2 62 4 19 4 54 39 38 39 -6 0 -8 3 -5 7 11 11 -24 43 -47 43 -16 -1 -13 -4 13 -16z m-6 -31 c26 -8 21 -18 -16 -31 -44 -16 -52 -15 -37 3 7 8 9 22 6 31 -5 12 -2 15 11 9 10 -4 26 -10 36 -12z m-89 -14 c-3 -5 -10 -7 -15 -3 -5 3 -7 10 -3 15 3 5 10 7 15 3 5 -3 7 -10 3 -15z m-41 -14 l18 -25 -43 4 c-24 3 -45 5 -48 6 -7 1 41 40 49 40 3 0 14 -12 24 -25z"/> <path d="M1253 1906 c26 -8 59 -21 72 -30 28 -18 35 -20 35 -7 0 16 -62 42 -110 46 l-45 5 48 -14z"/> <path d="M1103 1890 c-13 -5 -23 -12 -23 -15 0 -9 16 -5 36 10 22 16 19 18 -13 5z"/> <path d="M1371 1872 c13 -37 25 -48 25 -23 0 9 -8 25 -18 36 -18 18 -18 18 -7 -13z"/> <path d="M1132 1875 c-34 -15 -91 -55 -78 -55 4 0 17 5 28 11 18 10 20 9 14 -7 -5 -14 -4 -16 4 -8 8 8 24 9 47 4 20 -5 46 -5 59 0 14 6 26 5 29 -1 4 -5 31 -7 63 -4 l57 5 -35 -30 c-19 -16 -50 -33 -70 -37 -19 -3 -29 -8 -22 -10 6 -3 9 -10 5 -16 -3 -7 2 -5 13 3 20 17 95 54 104 53 3 -1 7 9 8 21 5 65 -138 109 -226 71z m38 -14 c0 -5 3 -16 6 -24 5 -13 0 -14 -31 -4 -36 11 -36 11 -13 23 28 16 38 17 38 5z m60 -1 c0 -5 -4 -10 -10 -10 -5 0 -10 5 -10 10 0 6 5 10 10 10 6 0 10 -4 10 -10z m84 -9 l28 -19 -46 -3 c-25 -2 -46 -3 -46 -1 0 6 25 42 30 42 3 0 18 -9 34 -19z"/> <path d="M798 1838 c-17 -25 -9 -58 42 -176 36 -83 33 -55 -6 53 -33 93 -34 100 -18 112 11 8 13 13 5 13 -7 0 -9 5 -6 10 13 20 -3 9 -17 -12z"/> <path d="M1850 1850 c8 -5 20 -10 25 -10 6 0 3 5 -5 10 -8 5 -19 10 -25 10 -5 0 -3 -5 5 -10z"/> <path d="M841 1834 c0 -11 3 -14 6 -6 3 7 2 16 -1 19 -3 4 -6 -2 -5 -13z"/> <path d="M1776 1805 c-31 -19 -44 -21 -65 -14 -17 7 -23 7 -16 0 23 -22 63 -17 100 14 37 30 32 30 -19 0z"/> <path d="M2056 1815 c-9 -26 -7 -32 5 -12 6 10 9 21 6 23 -2 3 -7 -2 -11 -11z"/> <path d="M1117 1789 c13 -13 133 -21 133 -8 0 7 -12 9 -31 7 -17 -3 -49 -2 -71 2 -22 4 -36 4 -31 -1z"/> <path d="M1023 1775 c0 -8 4 -12 9 -9 5 3 6 10 3 15 -9 13 -12 11 -12 -6z"/> <path d="M1430 1781 c0 -6 4 -13 10 -16 6 -3 7 1 4 9 -7 18 -14 21 -14 7z"/> <path d="M2036 1765 c-3 -9 -6 -24 -5 -33 0 -9 5 -4 10 12 9 32 6 48 -5 21z"/> <path d="M1407 1756 c-4 -10 -1 -13 8 -9 8 3 12 9 9 14 -7 12 -11 11 -17 -5z"/> <path d="M1393 1718 c2 -7 -9 -21 -25 -31 -57 -34 -60 -107 -6 -126 17 -6 38 -11 47 -10 9 0 3 5 -14 11 -42 15 -55 27 -55 53 0 23 28 55 48 55 14 0 31 31 25 48 -3 6 -9 12 -15 12 -5 0 -8 -6 -5 -12z"/> <path d="M1558 1695 c3 -20 9 -24 27 -19 28 7 48 -23 43 -64 -2 -21 -11 -30 -38 -39 -31 -10 -32 -12 -9 -12 40 -1 63 22 63 63 0 37 -38 91 -56 80 -5 -3 -15 -1 -22 5 -11 9 -12 6 -8 -14z"/> <path d="M1384 1604 c-18 -15 -17 -15 18 -10 25 3 41 0 49 -10 6 -8 8 -14 3 -14 -13 0 19 -20 32 -20 6 0 23 11 38 25 26 24 43 30 75 26 7 -2 10 2 6 8 -9 15 -51 14 -67 -2 -7 -8 -24 -19 -37 -26 -20 -11 -26 -10 -50 13 -32 30 -40 32 -67 10z"/> <path d="M1075 1570 c-3 -5 -1 -10 4 -10 6 0 11 5 11 10 0 6 -2 10 -4 10 -3 0 -8 -4 -11 -10z"/> <path d="M1416 1534 c-9 -8 -16 -23 -16 -32 0 -13 -2 -14 -9 -3 -5 7 -11 9 -14 4 -5 -8 5 -33 15 -36 3 -1 12 4 20 11 11 9 23 10 42 2 18 -7 34 -6 52 2 27 13 84 -1 116 -29 17 -15 35 -2 23 18 -7 10 -48 29 -73 33 -8 1 -18 9 -23 17 -6 10 -9 10 -9 2 0 -7 -9 -13 -19 -13 -11 0 -23 -4 -26 -10 -9 -15 -25 -12 -25 5 0 11 -5 12 -25 5 -16 -6 -27 -6 -31 2 -4 6 -3 8 3 5 6 -4 13 2 16 13 6 24 3 25 -17 4z"/> <path d="M1555 1540 c3 -5 8 -10 11 -10 2 0 4 5 4 10 0 6 -5 10 -11 10 -5 0 -7 -4 -4 -10z"/> <path d="M1890 1520 c0 -5 5 -10 11 -10 5 0 7 5 4 10 -3 6 -8 10 -11 10 -2 0 -4 -4 -4 -10z"/> <path d="M1785 1500 c-3 -5 -1 -10 4 -10 6 0 11 5 11 10 0 6 -2 10 -4 10 -3 0 -8 -4 -11 -10z"/> <path d="M1316 1465 c-15 -14 -31 -23 -36 -20 -4 3 -14 -3 -21 -13 -13 -15 -12 -16 3 -4 13 10 17 10 21 0 4 -10 6 -10 6 0 1 6 8 12 16 12 19 0 65 29 65 41 0 17 -27 9 -54 -16z"/> <path d="M1662 1460 c-2 -22 1 -28 12 -24 8 3 17 1 21 -5 10 -16 25 -13 25 5 0 10 -6 14 -14 11 -13 -5 -45 21 -38 30 2 3 2 6 0 8 -2 2 -5 -9 -6 -25z"/> <path d="M1076 1443 c-6 -14 -5 -15 5 -6 7 7 10 15 7 18 -3 3 -9 -2 -12 -12z"/> <path d="M1480 1439 c0 -5 5 -7 10 -4 6 3 10 8 10 11 0 2 -4 4 -10 4 -5 0 -10 -5 -10 -11z"/> <path d="M11 1347 c32 -423 287 -849 654 -1094 199 -133 431 -219 640 -239 33 -3 67 -8 75 -10 10 -4 12 -2 5 5 -5 5 -21 11 -35 13 -17 2 -27 12 -34 33 -5 17 -13 39 -17 50 -16 37 -39 138 -33 146 3 5 -2 12 -10 15 -9 3 -16 14 -16 23 0 14 2 14 10 1 28 -43 -3 52 -51 158 -27 59 -103 292 -97 297 2 3 18 7 34 11 25 4 37 -2 87 -46 31 -28 63 -49 70 -47 7 3 4 6 -6 6 -10 1 -15 6 -12 11 3 6 -1 10 -9 10 -18 0 -20 11 -6 28 7 9 7 9 -2 2 -7 -6 -21 -2 -40 12 -20 14 -26 23 -18 28 8 5 3 10 -14 14 -28 7 -80 -11 -126 -44 -16 -12 -62 -34 -102 -51 -40 -16 -96 -44 -125 -61 -50 -30 -51 -32 -50 -77 0 -32 3 -39 8 -26 7 19 8 19 8 -2 1 -12 -3 -25 -9 -28 -5 -3 -10 -11 -10 -18 0 -7 5 -6 14 3 9 9 16 38 17 69 2 49 5 55 38 75 20 12 76 39 124 60 48 21 90 43 93 47 12 20 22 5 43 -63 12 -40 43 -133 68 -207 24 -74 47 -144 50 -155 2 -12 5 -25 7 -31 2 -5 6 -23 11 -40 4 -16 18 -66 31 -111 29 -96 29 -93 5 -87 -10 3 -27 22 -36 44 -10 21 -22 39 -27 39 -11 0 -10 -7 2 -31 18 -32 3 -39 -47 -24 -26 8 -49 12 -52 10 -2 -3 -9 -1 -15 4 -7 6 -23 12 -36 15 -65 13 -200 69 -215 89 -5 7 -15 12 -22 10 -6 -2 -40 13 -75 35 -35 21 -72 41 -82 45 -14 6 -17 14 -12 37 3 18 1 30 -5 30 -6 0 -8 -4 -4 -9 3 -6 -4 -15 -15 -21 -26 -14 -26 -14 10 131 54 219 90 330 135 419 33 65 32 77 -1 21 -45 -74 -90 -209 -148 -447 l-28 -111 -30 28 -31 28 40 48 c22 26 43 55 48 63 8 16 -61 -61 -83 -91 -11 -16 -20 -10 -93 64 -107 109 -198 227 -191 250 1 4 -3 7 -9 7 -5 0 -7 5 -4 10 3 6 -1 10 -10 10 -12 0 -15 6 -10 20 4 14 2 18 -7 15 -8 -3 -27 24 -52 78 -80 168 -124 321 -146 501 -13 112 -27 114 -19 3z"/> <path d="M1771 1431 c-8 -5 -9 -11 -3 -15 5 -3 12 1 16 9 6 17 6 18 -13 6z"/> <path d="M1050 1411 c0 -6 4 -12 8 -15 5 -3 9 1 9 9 0 8 -4 15 -9 15 -4 0 -8 -4 -8 -9z"/> <path d="M1280 1410 c-18 -5 -40 -17 -48 -27 -7 -10 -18 -17 -23 -15 -6 1 -8 -2 -4 -8 4 -7 19 -3 41 10 18 12 39 18 45 14 8 -4 9 -3 5 4 -5 9 9 12 46 13 29 1 110 2 181 4 81 2 127 -1 127 -7 0 -6 7 -7 16 -4 10 4 25 -1 35 -10 11 -10 19 -13 19 -7 0 5 -8 17 -18 26 -16 14 -45 17 -203 16 -101 -1 -200 -5 -219 -9z"/> <path d="M1550 1390 c0 -8 5 -22 10 -30 9 -13 10 -13 10 0 0 8 -5 22 -10 30 -9 13 -10 13 -10 0z"/> <path d="M1075 1380 c-3 -6 1 -7 9 -4 18 7 21 14 7 14 -6 0 -13 -4 -16 -10z"/> <path d="M2976 1368 c-2 -13 -9 -59 -16 -103 -12 -86 -43 -211 -64 -260 -7 -16 -21 -50 -31 -75 -38 -99 -89 -190 -104 -185 -11 4 -12 3 -1 -10 21 -26 -11 -18 -62 14 -25 16 -56 34 -69 40 -23 12 -23 12 -4 -4 11 -9 44 -30 73 -47 l53 -30 -17 -27 c-43 -65 -98 -132 -172 -210 -68 -72 -83 -83 -96 -72 -8 7 -12 20 -9 29 5 14 3 15 -8 5 -10 -10 -10 -16 -1 -25 21 -21 13 -42 -23 -67 -20 -13 -36 -22 -38 -20 -1 2 -12 19 -25 36 -12 18 -25 46 -28 63 -4 16 -10 30 -15 30 -13 0 -12 -3 23 -80 24 -56 28 -73 19 -83 -10 -9 -16 -8 -28 8 -11 14 -14 15 -10 3 6 -18 -18 -57 -29 -46 -4 4 -14 -1 -23 -11 -43 -49 -296 -157 -438 -186 -32 -6 -33 -6 -33 27 0 25 -3 29 -10 18 -5 -8 -10 -25 -10 -37 0 -17 -8 -24 -35 -29 -20 -3 -38 -4 -41 -2 -2 3 -9 25 -14 49 l-9 44 3 -52 c2 -29 0 -50 -4 -48 -4 2 -20 0 -36 -5 -27 -8 -25 -8 17 -9 114 -2 325 57 496 139 148 70 272 159 399 285 204 203 334 431 403 705 23 93 42 250 29 250 -4 0 -10 -10 -12 -22z"/> <path d="M1623 1355 c6 -32 -230 -50 -269 -20 -24 18 -31 18 -37 1 -4 -11 -1 -13 10 -9 11 4 14 2 9 -5 -4 -8 0 -12 11 -12 11 0 24 -5 29 -10 7 -7 20 -7 35 -2 13 5 53 8 88 7 38 -1 76 4 90 12 15 7 31 13 36 13 6 0 18 8 27 19 15 18 14 19 -7 17 -13 0 -23 -5 -22 -11z"/> <path d="M1282 1348 c2 -5 8 -9 13 -9 5 0 11 4 13 9 1 5 -4 9 -13 9 -9 0 -14 -4 -13 -9z"/> <path d="M1115 1320 c3 -5 8 -10 11 -10 2 0 4 5 4 10 0 6 -5 10 -11 10 -5 0 -7 -4 -4 -10z"/> <path d="M1135 1300 c-3 -6 1 -7 9 -4 18 7 21 14 7 14 -6 0 -13 -4 -16 -10z"/> <path d="M1760 1306 c0 -2 7 -7 16 -10 8 -3 12 -2 9 4 -6 10 -25 14 -25 6z"/> <path d="M1116 1272 c-3 -5 1 -9 9 -9 8 0 12 4 9 9 -3 4 -7 8 -9 8 -2 0 -6 -4 -9 -8z"/> <path d="M1413 1273 c-13 -2 -23 -9 -23 -15 0 -5 7 -7 16 -4 9 3 22 6 30 6 8 0 14 5 14 10 0 6 -3 9 -7 9 -5 -1 -18 -4 -30 -6z"/> <path d="M1165 1252 c-17 -12 -17 -42 0 -42 10 0 13 -5 9 -12 -5 -8 0 -9 14 -6 26 7 41 -9 18 -18 -9 -3 -16 -11 -16 -16 0 -7 5 -6 13 1 8 6 17 9 20 6 4 -3 5 -2 3 1 -2 3 0 19 5 36 4 17 6 28 2 24 -4 -3 -15 1 -25 11 -10 9 -18 11 -18 6 0 -6 7 -13 15 -17 30 -11 15 -25 -16 -14 -17 6 -27 13 -22 17 7 5 16 31 11 31 -2 0 -7 -4 -13 -8z"/> <path d="M1900 1215 c8 -11 26 -32 40 -48 14 -16 35 -47 47 -70 28 -53 30 -41 3 16 -11 24 -39 61 -62 83 -23 21 -36 30 -28 19z"/> <path d="M1500 1205 c0 -5 5 -17 10 -25 5 -8 10 -10 10 -5 0 6 -5 17 -10 25 -5 8 -10 11 -10 5z"/> <path d="M1746 1195 c-3 -8 0 -17 6 -21 6 -4 8 -3 4 4 -3 5 -1 12 6 14 8 3 9 6 1 11 -6 4 -13 0 -17 -8z"/> <path d="M1267 1185 c-3 -7 0 -12 8 -11 22 3 27 13 11 19 -8 3 -17 0 -19 -8z"/> <path d="M1696 1185 c4 -8 11 -15 16 -15 6 0 5 6 -2 15 -7 8 -14 15 -16 15 -2 0 -1 -7 2 -15z"/> <path d="M1137 1179 c7 -7 15 -10 18 -7 3 3 -2 9 -12 12 -14 6 -15 5 -6 -5z"/> <path d="M1590 1164 c0 -8 -4 -12 -10 -9 -5 3 -10 1 -10 -4 0 -18 19 -12 30 9 7 14 7 20 0 20 -5 0 -10 -7 -10 -16z"/> <path d="M1672 1158 c-7 -7 -12 -19 -12 -27 0 -11 5 -8 16 7 18 25 15 39 -4 20z"/> <path d="M1290 1134 c25 -14 48 -30 51 -36 3 -5 9 -9 13 -9 26 4 46 -1 41 -9 -3 -6 1 -7 9 -4 9 3 16 1 16 -5 0 -8 6 -9 18 -2 13 7 23 6 32 -2 10 -9 11 -9 6 1 -4 7 -1 12 8 12 23 0 27 16 5 17 -10 1 -19 -2 -19 -6 0 -4 -16 -5 -35 -3 -19 2 -33 9 -32 15 1 6 -11 11 -28 12 -52 3 -56 5 -49 17 4 7 3 8 -4 4 -7 -4 -12 -1 -12 6 0 8 -13 15 -32 16 l-33 2 45 -26z"/> <path d="M1350 1150 c-9 -6 -10 -10 -3 -10 6 0 15 5 18 10 8 12 4 12 -15 0z"/> <path d="M1623 1148 c4 -12 -1 -19 -16 -24 -12 -5 -25 -7 -29 -6 -5 1 -8 -2 -8 -8 0 -5 11 -10 25 -10 14 0 25 5 25 10 0 6 7 10 15 10 19 0 19 8 -2 28 -16 16 -16 16 -10 0z"/> <path d="M1710 1144 c0 -8 5 -12 10 -9 6 4 8 11 5 16 -9 14 -15 11 -15 -7z"/> <path d="M1901 1124 c0 -11 3 -14 6 -6 3 7 2 16 -1 19 -3 4 -6 -2 -5 -13z"/> <path d="M1551 1113 c-1 -7 -6 -12 -12 -10 -6 1 -14 -4 -16 -10 -5 -15 6 -17 26 -4 7 5 11 15 8 22 -4 10 -6 10 -6 2z"/> <path d="M1110 1104 c0 -6 15 -23 33 -40 l32 -29 -30 35 c-16 19 -31 37 -32 39 -2 2 -3 0 -3 -5z"/> <path d="M905 978 c-92 -143 -111 -184 -120 -257 -4 -30 -14 -70 -22 -89 -8 -19 -12 -37 -9 -39 9 -9 27 46 41 122 15 84 25 106 91 210 28 44 63 101 78 128 50 87 19 48 -59 -75z"/> <path d="M1273 1075 c0 -8 4 -15 9 -15 4 0 8 4 8 9 0 6 -4 12 -8 15 -5 3 -9 -1 -9 -9z"/> <path d="M1759 1042 c-25 -21 -79 -53 -120 -72 -68 -32 -81 -35 -169 -35 -76 0 -104 5 -142 22 -27 12 -48 20 -48 17 0 -10 89 -44 136 -53 74 -14 156 4 254 55 48 24 99 58 115 74 38 40 30 37 -26 -8z"/> <path d="M1610 1060 c0 -5 5 -10 11 -10 5 0 7 5 4 10 -3 6 -8 10 -11 10 -2 0 -4 -4 -4 -10z"/> <path d="M1346 1047 c3 -10 9 -15 12 -12 3 3 0 11 -7 18 -10 9 -11 8 -5 -6z"/> <path d="M2021 1030 c13 -28 60 -86 65 -82 12 8 35 -12 164 -138 79 -77 148 -140 153 -140 11 0 -270 273 -317 308 -17 12 -41 35 -54 50 -23 26 -23 27 -11 2z"/> <path d="M1416 1023 c-6 -14 -5 -15 5 -6 7 7 10 15 7 18 -3 3 -9 -2 -12 -12z"/> <path d="M1520 1036 c0 -2 8 -10 18 -17 15 -13 16 -12 3 4 -13 16 -21 21 -21 13z"/> <path d="M875 998 c-71 -59 -89 -78 -74 -78 8 0 39 25 69 55 61 62 63 70 5 23z"/> <path d="M2066 1021 c8 -8 77 -34 344 -131 58 -21 123 -46 145 -55 22 -9 36 -13 30 -7 -11 10 -158 72 -184 77 -10 2 -35 11 -57 20 -55 24 -274 105 -281 105 -4 0 -3 -4 3 -9z"/> <path d="M1230 1006 c0 -3 9 -10 20 -16 11 -6 20 -8 20 -6 0 3 -9 10 -20 16 -11 6 -20 8 -20 6z"/> <path d="M745 948 c-55 -27 -122 -59 -150 -70 -27 -11 -72 -30 -100 -42 -27 -13 -84 -38 -125 -55 -74 -31 -112 -51 -98 -51 4 0 60 23 125 51 65 28 154 66 198 84 80 33 255 123 255 131 0 6 5 8 -105 -48z"/> <path d="M2189 906 c14 -14 27 -26 29 -26 10 0 -26 44 -39 48 -8 3 -3 -7 10 -22z"/> <path d="M2376 868 c6 -15 88 -82 107 -86 14 -4 -69 73 -95 88 -13 8 -16 7 -12 -2z"/> <path d="M2461 846 c2 -2 20 -11 39 -20 l35 -17 -24 21 c-13 11 -30 20 -39 20 -8 0 -13 -2 -11 -4z"/> <path d="M1887 823 c-4 -3 -7 -11 -7 -17 0 -6 5 -5 12 2 6 6 9 14 7 17 -3 3 -9 2 -12 -2z"/> <path d="M2700 771 c24 -20 40 -26 40 -16 0 2 -15 12 -32 20 l-33 16 25 -20z"/> <path d="M766 755 c-3 -9 -6 -26 -5 -38 1 -14 4 -9 9 13 9 37 7 52 -4 25z"/> <path d="M2147 753 c-11 -18 193 -86 209 -70 3 3 -12 8 -34 12 -44 7 -108 28 -118 38 -4 4 -15 7 -25 7 -9 0 -19 5 -21 12 -3 9 -6 9 -11 1z"/> <path d="M1965 741 c-3 -6 9 -7 30 -4 30 5 36 2 44 -18 9 -22 11 -22 15 -1 1 4 5 13 9 20 6 9 -4 12 -42 12 -27 0 -52 -4 -56 -9z"/> <path d="M2090 733 c6 -10 22 -49 35 -88 13 -38 24 -66 24 -62 2 17 -22 103 -32 115 -5 7 -7 15 -3 19 14 14 35 -26 66 -124 18 -57 36 -103 41 -103 12 0 13 -7 -22 94 -17 48 -28 90 -25 93 3 4 20 6 38 5 23 -1 28 2 18 8 -8 6 -23 10 -33 10 -10 0 -40 11 -68 25 -41 21 -48 23 -39 8z"/> <path d="M1892 727 c-6 -7 -12 -30 -14 -51 -2 -30 -8 -40 -22 -42 -11 -1 -31 -15 -45 -29 l-26 -27 55 31 c49 27 55 33 52 60 -2 16 2 39 8 50 12 23 8 28 -8 8z"/> <path d="M320 719 c0 -5 5 -7 10 -4 6 3 10 8 10 11 0 2 -4 4 -10 4 -5 0 -10 -5 -10 -11z"/> <path d="M950 700 c-8 -5 -10 -10 -5 -10 6 0 17 5 25 10 8 5 11 10 5 10 -5 0 -17 -5 -25 -10z"/> <path d="M1325 700 c3 -5 8 -10 11 -10 2 0 4 5 4 10 0 6 -5 10 -11 10 -5 0 -7 -4 -4 -10z"/> <path d="M1054 679 c-4 -8 -3 -9 4 -5 7 4 12 1 12 -8 0 -8 4 -17 9 -20 5 -4 7 3 4 14 -7 26 -19 34 -29 19z"/> <path d="M1356 681 c-4 -5 -2 -12 3 -15 5 -4 12 -2 15 3 4 5 2 12 -3 15 -5 4 -12 2 -15 -3z"/> <path d="M1857 670 c-3 -11 -1 -20 4 -20 5 0 9 9 9 20 0 11 -2 20 -4 20 -2 0 -6 -9 -9 -20z"/> <path d="M742 664 c-7 -8 -8 -14 -3 -14 10 0 25 19 20 25 -2 1 -10 -3 -17 -11z"/> <path d="M1924 664 c-18 -14 -18 -15 4 -4 12 6 22 13 22 15 0 8 -5 6 -26 -11z"/> <path d="M830 645 c-25 -14 -40 -25 -33 -25 6 0 31 11 54 25 57 32 38 32 -21 0z"/> <path d="M1932 646 c-18 -13 -62 -38 -97 -56 -65 -33 -84 -52 -29 -28 48 21 164 92 164 100 0 11 0 11 -38 -16z"/> <path d="M2075 660 c3 -5 8 -10 11 -10 2 0 4 5 4 10 0 6 -5 10 -11 10 -5 0 -7 -4 -4 -10z"/> <path d="M1315 650 c-8 -13 5 -13 25 0 13 8 13 10 -2 10 -9 0 -20 -4 -23 -10z"/> <path d="M2359 598 c64 -144 72 -158 81 -153 12 7 -6 45 -20 45 -6 0 -9 3 -8 8 1 4 -6 25 -16 47 -10 22 -24 56 -31 75 -7 19 -18 36 -24 38 -6 2 2 -25 18 -60z"/> <path d="M700 569 c0 -5 5 -7 10 -4 6 3 10 8 10 11 0 2 -4 4 -10 4 -5 0 -10 -5 -10 -11z"/> <path d="M2147 550 c3 -11 9 -22 13 -25 5 -3 6 4 3 15 -3 11 -9 22 -13 25 -5 3 -6 -4 -3 -15z"/> <path d="M1106 530 c11 -58 25 -80 18 -30 -3 25 -10 49 -15 55 -6 6 -7 -4 -3 -25z"/> <path d="M693 503 c-7 -15 -11 -29 -8 -31 3 -3 5 0 5 7 0 7 5 9 10 6 6 -4 10 5 10 19 0 32 -2 32 -17 -1z"/> <path d="M1085 501 c5 -34 12 -49 18 -40 2 2 -3 20 -10 39 l-14 35 6 -34z"/> <path d="M2228 415 c9 -36 19 -65 23 -65 4 0 3 17 -2 38 -5 20 -12 49 -15 65 -4 15 -10 27 -14 27 -4 0 0 -29 8 -65z"/> <path d="M700 467 c0 -1 -4 -18 -10 -36 -5 -19 -6 -30 -1 -25 10 11 24 64 16 64 -3 0 -5 -1 -5 -3z"/> <path d="M672 440 c0 -14 2 -19 5 -12 2 6 2 18 0 25 -3 6 -5 1 -5 -13z"/> <path d="M1285 430 c9 -63 14 -83 24 -93 5 -5 7 -15 5 -22 -3 -7 -1 -16 5 -20 16 -10 13 13 -14 95 -14 41 -23 59 -20 40z"/> <path d="M1106 410 c3 -14 11 -28 17 -31 5 -4 6 -13 2 -20 -6 -11 -5 -11 4 -3 10 9 8 19 -9 45 -17 28 -20 29 -14 9z"/> <path d="M1410 385 c0 -8 5 -15 10 -15 6 0 10 7 10 15 0 8 -4 15 -10 15 -5 0 -10 -7 -10 -15z"/> <path d="M1663 383 c-3 -10 -8 -22 -11 -27 -3 -5 0 -6 5 -3 11 7 25 47 17 47 -3 0 -7 -8 -11 -17z"/> <path d="M1420 345 c0 -5 5 -17 10 -25 5 -8 10 -10 10 -5 0 6 -5 17 -10 25 -5 8 -10 11 -10 5z"/> <path d="M1141 308 c1 -13 5 -34 9 -48 6 -19 7 -14 6 22 0 27 -4 48 -8 48 -5 0 -8 -10 -7 -22z"/> <path d="M1461 317 c-1 -10 13 -44 29 -77 31 -62 37 -90 19 -90 -5 0 -7 -5 -3 -11 5 -8 10 -6 16 6 10 17 2 85 -10 95 -4 3 -17 25 -29 50 -12 25 -22 37 -22 27z"/> <path d="M1582 237 c-39 -85 -43 -100 -39 -158 l3 -64 2 68 c2 57 8 80 43 147 22 44 39 85 37 90 -2 6 -22 -32 -46 -83z"/> <path d="M1652 300 c0 -14 2 -19 5 -12 2 6 2 18 0 25 -3 6 -5 1 -5 -13z"/> <path d="M1404 247 c15 -19 26 -37 26 -41 0 -12 43 -66 53 -66 4 0 -1 12 -12 26 -12 15 -21 32 -21 39 0 12 -55 75 -66 75 -3 0 6 -15 20 -33z"/> <path d="M1346 241 c9 -17 17 -31 19 -31 8 0 -9 40 -21 51 -10 8 -10 3 2 -20z"/> <path d="M1890 260 c0 -5 5 -10 11 -10 5 0 7 5 4 10 -3 6 -8 10 -11 10 -2 0 -4 -4 -4 -10z"/> <path d="M1656 215 c6 -50 23 -98 24 -65 0 8 -7 38 -15 65 l-15 50 6 -50z"/> <path d="M1590 141 c16 -6 19 -9 8 -10 -9 -1 -20 -6 -24 -13 -5 -8 -2 -9 9 -5 10 3 17 2 17 -3 0 -6 -4 -10 -10 -10 -5 0 -10 -5 -10 -11 0 -6 7 -8 16 -5 14 5 15 4 5 -8 -8 -9 -9 -16 -2 -21 12 -7 24 33 19 66 -2 17 -10 25 -28 26 l-25 2 25 -8z"/> <path d="M1406 127 c3 -10 9 -15 12 -12 3 3 0 11 -7 18 -10 9 -11 8 -5 -6z"/> <path d="M1426 65 c3 -22 10 -47 15 -55 11 -18 0 46 -13 75 -5 13 -6 7 -2 -20z"/> <path d="M1501 54 c0 -11 3 -14 6 -6 3 7 2 16 -1 19 -3 4 -6 -2 -5 -13z"/> <path d="M1566 56 c3 -9 11 -16 16 -16 13 0 5 23 -10 28 -7 2 -10 -2 -6 -12z"/> <path d="M1651 54 c0 -11 3 -14 6 -6 3 7 2 16 -1 19 -3 4 -6 -2 -5 -13z"/> </g> </svg> 